<svg id="Layer_1" enable-background="new 0 0 496.003 496.003" height="512" viewBox="0 0 496.003 496.003" width="512" fill="#f15546" xmlns="http://www.w3.org/2000/svg"><path d="m62.621 257.662c19.93 0 36.14-16.22 36.14-36.14v-105.93c0-19.93-16.21-36.14-36.14-36.14s-36.14 16.21-36.14 36.14v105.93c0 19.921 16.21 36.14 36.14 36.14z"/><path d="m454.991 235.483c-37.422-60.814-34.91-56.875-36.8-59.45-11.67-16.12-30.72-25.96-50.76-25.96h-163.57c-15.06 0-27.31 12.25-27.31 27.31 0 39.4 32.05 71.45 71.45 71.45h123.59c4.41 0 8 3.58 8 8s-3.59 8-8 8c-78.34 0-142.07 63.73-142.07 142.07 0 4.41-3.58 8-8 8s-8-3.59-8-8c0-62.34 36.26-116.35 88.8-142.07h-54.32c-20.57 0-39.51-7.14-54.46-19.08-25.394 16.972-60.042 12.663-80.37-11.41-9.768 38.475-57.767 52.595-86.69 24.72v68.39c0 92.94 75.61 168.55 168.55 168.55h105.94c92.94 0 168.55-75.61 168.55-168.55v-40.64c0-18.131-5.03-35.881-14.53-51.33z"/><path d="m181.641 234.283c-13.14-15.31-21.09-35.19-21.09-56.9 0-22.889 18.134-43.31 44.14-43.31v-53.79c0-24.8-20.17-44.97-44.97-44.97-24.831 0-44.96 20.096-44.96 44.97v114.75c0 34.494 37.272 55.856 66.88 39.25z"/><path d="m310.621 44.973c0-39.801-48.505-60.055-76.76-31.8-8.49 8.49-13.17 19.78-13.17 31.8v89.1h89.93z"/><path d="m416.551 151.382v-106.409c0-24.8-20.17-44.97-44.96-44.97-24.845 0-44.97 20.097-44.97 44.97v89.1h40.81c17.99 0 35.34 6.32 49.12 17.309z"/></svg>
